<svg width="56" height="56" viewBox="0 0 56 56" fill="none" xmlns="http://www.w3.org/2000/svg">
<mask id="mask0_785_9534" style="mask-type:luminance" maskUnits="userSpaceOnUse" x="0" y="0" width="56" height="56">
<path d="M28 56C43.464 56 56 43.464 56 28C56 12.536 43.464 0 28 0C12.536 0 0 12.536 0 28C0 43.464 12.536 56 28 56Z" fill="white"/>
</mask>
<g mask="url(#mask0_785_9534)">
<path d="M67.5295 0H-11.5293V56H67.5295V0Z" fill="#024DA1"/>
<path d="M27.9845 6.69824L27.3451 8.81759L25.2578 8.81504L26.951 10.1086L26.3162 12.2005L27.9845 10.9069L29.6528 12.2005L29.02 10.1097L30.7122 8.81504H28.6239L27.9845 6.69824Z" fill="#FFF100"/>
<path d="M34.9647 14.6674L36.635 13.3718L38.3012 14.6674L37.6674 12.5761L39.3617 11.2799H37.2708L36.6329 9.1626L35.9945 11.2845L33.9062 11.2799L35.5985 12.5761L34.9647 14.6674Z" fill="#FFF100"/>
<path d="M42.9367 20.07L44.6049 21.3631L43.9691 19.2717L45.6633 17.9802H43.5771L42.9367 15.8608L42.2967 17.9827L40.21 17.9802L41.9047 19.2717L41.2684 21.3631L42.9367 20.07Z" fill="#FFF100"/>
<path d="M45.2286 29.2314L46.8969 30.5275L46.2631 28.4357L47.9574 27.142H45.8691L45.2286 25.0227L44.5902 27.1446L42.502 27.142L44.1962 28.4357L43.5624 30.5275L45.2286 29.2314Z" fill="#FFF100"/>
<path d="M42.9367 34.2368L43.5771 36.3562H45.6633L43.9691 37.6498L44.6049 39.7416L42.9367 38.446L41.2684 39.7416L41.9047 37.6498L40.21 36.3562L42.2967 36.3587L42.9367 34.2368Z" fill="#FFF100"/>
<path d="M36.6085 40.9634L37.2464 43.0807H39.3352L37.6405 44.3743L38.2768 46.4656L36.6085 45.1725L34.9402 46.4656L35.5741 44.3743L33.8818 43.0807L35.9681 43.0827L36.6085 40.9634Z" fill="#FFF100"/>
<path d="M28.0001 43.3984L28.638 45.5157H30.7268L29.0326 46.8088L29.6684 48.9007L28.0001 47.6076L26.3318 48.9007L26.9657 46.8088L25.2734 45.5157L27.3597 45.5178L28.0001 43.3984Z" fill="#FFF100"/>
<path d="M19.3634 40.9634L20.0013 43.0807H22.0901L20.3953 44.3743L21.0317 46.4656L19.3634 45.1725L17.6951 46.4656L18.3289 44.3743L16.6367 43.0807L18.723 43.0827L19.3634 40.9634Z" fill="#FFF100"/>
<path d="M13.0343 34.2375L13.6722 36.3549H15.761L14.0667 37.6485L14.7026 39.7403L13.0343 38.4467L11.366 39.7403L11.9998 37.6485L10.3076 36.3549L12.3939 36.3569L13.0343 34.2375Z" fill="#FFF100"/>
<path d="M10.7159 25.0483L11.3543 27.1657H13.4426L11.7484 28.4587L12.3842 30.5506L10.7159 29.2575L9.04766 30.5506L9.68148 28.4587L7.98926 27.1657L10.0755 27.1677L10.7159 25.0483Z" fill="#FFF100"/>
<path d="M13.0343 15.8878L13.6722 18.0051H15.761L14.0667 19.2987L14.7026 21.3906L13.0343 20.097L11.366 21.3906L11.9998 19.2987L10.3076 18.0051L12.3939 18.0077L13.0343 15.8878Z" fill="#FFF100"/>
<path d="M19.3507 9.16125L19.9886 11.2786H22.0774L20.3832 12.5722L21.019 14.664L19.3507 13.3704L17.6824 14.664L18.3162 12.5722L16.624 11.2786L18.7103 11.2806L19.3507 9.16125Z" fill="#FFF100"/>
</g>
</svg>
