<svg width="136" height="56" viewBox="0 0 136 56" fill="none" xmlns="http://www.w3.org/2000/svg">
<mask id="mask0_941_13355" style="mask-type:luminance" maskUnits="userSpaceOnUse" x="0" y="0" width="56" height="56">
<path d="M28 56C43.464 56 56 43.464 56 28C56 12.536 43.464 0 28 0C12.536 0 0 12.536 0 28C0 43.464 12.536 56 28 56Z" fill="white"/>
</mask>
<g mask="url(#mask0_941_13355)">
<path d="M67.5291 0H-11.5297V56H67.5291V0Z" fill="#024DA1"/>
<path d="M27.9839 6.69824L27.3445 8.81759L25.2572 8.81504L26.9505 10.1086L26.3156 12.2005L27.9839 10.9069L29.6522 12.2005L29.0194 10.1097L30.7116 8.81504H28.6233L27.9839 6.69824Z" fill="#FFF100"/>
<path d="M34.9641 14.6674L36.6345 13.3718L38.3007 14.6674L37.6669 12.5761L39.3612 11.2799H37.2703L36.6324 9.1626L35.994 11.2845L33.9057 11.2799L35.598 12.5761L34.9641 14.6674Z" fill="#FFF100"/>
<path d="M42.9369 20.07L44.6052 21.3631L43.9693 19.2717L45.6636 17.9802H43.5773L42.9369 15.8608L42.2969 17.9827L40.2102 17.9802L41.9049 19.2717L41.2686 21.3631L42.9369 20.07Z" fill="#FFF100"/>
<path d="M45.2283 29.2314L46.8966 30.5275L46.2628 28.4357L47.957 27.142H45.8687L45.2283 25.0227L44.5899 27.1446L42.5016 27.142L44.1958 28.4357L43.562 30.5275L45.2283 29.2314Z" fill="#FFF100"/>
<path d="M42.9369 34.2368L43.5773 36.3562H45.6636L43.9693 37.6498L44.6052 39.7416L42.9369 38.446L41.2686 39.7416L41.9049 37.6498L40.2102 36.3562L42.2969 36.3587L42.9369 34.2368Z" fill="#FFF100"/>
<path d="M36.6085 40.9634L37.2464 43.0807H39.3352L37.6404 44.3743L38.2768 46.4656L36.6085 45.1725L34.9402 46.4656L35.574 44.3743L33.8818 43.0807L35.9681 43.0827L36.6085 40.9634Z" fill="#FFF100"/>
<path d="M28 43.3984L28.6379 45.5157H30.7267L29.0324 46.8088L29.6683 48.9007L28 47.6076L26.3317 48.9007L26.9655 46.8088L25.2733 45.5157L27.3596 45.5178L28 43.3984Z" fill="#FFF100"/>
<path d="M19.3635 40.9634L20.0014 43.0807H22.0902L20.3954 44.3743L21.0318 46.4656L19.3635 45.1725L17.6952 46.4656L18.329 44.3743L16.6368 43.0807L18.723 43.0827L19.3635 40.9634Z" fill="#FFF100"/>
<path d="M13.0337 34.2375L13.6716 36.3549H15.7604L14.0662 37.6485L14.702 39.7403L13.0337 38.4467L11.3654 39.7403L11.9993 37.6485L10.307 36.3549L12.3933 36.3569L13.0337 34.2375Z" fill="#FFF100"/>
<path d="M10.716 25.0483L11.3544 27.1657H13.4427L11.7484 28.4587L12.3843 30.5506L10.716 29.2575L9.04772 30.5506L9.68154 28.4587L7.98932 27.1657L10.0756 27.1677L10.716 25.0483Z" fill="#FFF100"/>
<path d="M13.0337 15.8878L13.6716 18.0051H15.7604L14.0662 19.2987L14.702 21.3906L13.0337 20.097L11.3654 21.3906L11.9993 19.2987L10.307 18.0051L12.3933 18.0077L13.0337 15.8878Z" fill="#FFF100"/>
<path d="M19.3501 9.16125L19.988 11.2786H22.0768L20.3826 12.5722L21.0184 14.664L19.3501 13.3704L17.6818 14.664L18.3157 12.5722L16.6234 11.2786L18.7097 11.2806L19.3501 9.16125Z" fill="#FFF100"/>
</g>
<g clip-path="url(#clip0_941_13355)">
<rect x="40" width="56" height="56" rx="3.5" fill="white"/>
<mask id="mask1_941_13355" style="mask-type:luminance" maskUnits="userSpaceOnUse" x="40" y="0" width="56" height="56">
<rect x="40" width="56" height="56" rx="3.5" fill="white"/>
</mask>
<g mask="url(#mask1_941_13355)">
<path fill-rule="evenodd" clip-rule="evenodd" d="M95.9998 0H39.9998V3.73333H95.9998V0ZM95.9998 7.46689H39.9998V11.2002H95.9998V7.46689ZM40 14.9336H96V18.6669H40V14.9336ZM96 22.4004H40V26.1337H96V22.4004ZM40 29.8672H96V33.6005H40V29.8672ZM96 37.334H40V41.0673H96V37.334ZM40 44.8008H96V48.5341H40V44.8008ZM96 52.2656H40V55.999H96V52.2656Z" fill="#D02F44"/>
<rect x="40" width="24" height="26.1333" fill="#46467F"/>
<g filter="url(#filter0_d_941_13355)">
<path fill-rule="evenodd" clip-rule="evenodd" d="M50.6666 5.59909C50.6666 6.63002 50.0696 7.46576 49.3333 7.46576C48.5969 7.46576 47.9999 6.63002 47.9999 5.59909C47.9999 4.56816 48.5969 3.73242 49.3333 3.73242C50.0696 3.73242 50.6666 4.56816 50.6666 5.59909ZM45.3332 5.59924C45.3332 6.63017 44.7362 7.4659 43.9998 7.4659C43.2635 7.4659 42.6665 6.63017 42.6665 5.59924C42.6665 4.5683 43.2635 3.73257 43.9998 3.73257C44.7362 3.73257 45.3332 4.5683 45.3332 5.59924ZM54.6663 7.46576C55.4027 7.46576 55.9996 6.63002 55.9996 5.59909C55.9996 4.56816 55.4027 3.73242 54.6663 3.73242C53.9299 3.73242 53.333 4.56816 53.333 5.59909C53.333 6.63002 53.9299 7.46576 54.6663 7.46576ZM61.3334 5.59909C61.3334 6.63002 60.7364 7.46576 60.0001 7.46576C59.2637 7.46576 58.6667 6.63002 58.6667 5.59909C58.6667 4.56816 59.2637 3.73242 60.0001 3.73242C60.7364 3.73242 61.3334 4.56816 61.3334 5.59909ZM46.6663 11.1983C47.4027 11.1983 47.9997 10.3626 47.9997 9.33166C47.9997 8.30073 47.4027 7.46499 46.6663 7.46499C45.93 7.46499 45.333 8.30073 45.333 9.33166C45.333 10.3626 45.93 11.1983 46.6663 11.1983ZM53.3332 9.33166C53.3332 10.3626 52.7362 11.1983 51.9998 11.1983C51.2635 11.1983 50.6665 10.3626 50.6665 9.33166C50.6665 8.30073 51.2635 7.46499 51.9998 7.46499C52.7362 7.46499 53.3332 8.30073 53.3332 9.33166ZM57.3328 11.1983C58.0692 11.1983 58.6662 10.3626 58.6662 9.33166C58.6662 8.30073 58.0692 7.46499 57.3328 7.46499C56.5965 7.46499 55.9995 8.30073 55.9995 9.33166C55.9995 10.3626 56.5965 11.1983 57.3328 11.1983ZM61.3334 13.066C61.3334 14.0969 60.7364 14.9327 60.0001 14.9327C59.2637 14.9327 58.6667 14.0969 58.6667 13.066C58.6667 12.0351 59.2637 11.1993 60.0001 11.1993C60.7364 11.1993 61.3334 12.0351 61.3334 13.066ZM54.6663 14.9327C55.4027 14.9327 55.9996 14.0969 55.9996 13.066C55.9996 12.0351 55.4027 11.1993 54.6663 11.1993C53.9299 11.1993 53.333 12.0351 53.333 13.066C53.333 14.0969 53.9299 14.9327 54.6663 14.9327ZM50.6666 13.066C50.6666 14.0969 50.0696 14.9327 49.3333 14.9327C48.5969 14.9327 47.9999 14.0969 47.9999 13.066C47.9999 12.0351 48.5969 11.1993 49.3333 11.1993C50.0696 11.1993 50.6666 12.0351 50.6666 13.066ZM43.9999 14.9327C44.7362 14.9327 45.3332 14.0969 45.3332 13.066C45.3332 12.0351 44.7362 11.1993 43.9999 11.1993C43.2635 11.1993 42.6665 12.0351 42.6665 13.066C42.6665 14.0969 43.2635 14.9327 43.9999 14.9327ZM47.9997 16.8004C47.9997 17.8313 47.4027 18.6671 46.6663 18.6671C45.93 18.6671 45.333 17.8313 45.333 16.8004C45.333 15.7695 45.93 14.9337 46.6663 14.9337C47.4027 14.9337 47.9997 15.7695 47.9997 16.8004ZM51.9998 18.6671C52.7362 18.6671 53.3332 17.8313 53.3332 16.8004C53.3332 15.7695 52.7362 14.9337 51.9998 14.9337C51.2635 14.9337 50.6665 15.7695 50.6665 16.8004C50.6665 17.8313 51.2635 18.6671 51.9998 18.6671ZM58.6662 16.8004C58.6662 17.8313 58.0692 18.6671 57.3328 18.6671C56.5965 18.6671 55.9995 17.8313 55.9995 16.8004C55.9995 15.7695 56.5965 14.9337 57.3328 14.9337C58.0692 14.9337 58.6662 15.7695 58.6662 16.8004ZM59.9998 22.3975C60.7362 22.3975 61.3332 21.5618 61.3332 20.5309C61.3332 19.4999 60.7362 18.6642 59.9998 18.6642C59.2635 18.6642 58.6665 19.4999 58.6665 20.5309C58.6665 21.5618 59.2635 22.3975 59.9998 22.3975ZM55.9997 20.5309C55.9997 21.5618 55.4027 22.3975 54.6663 22.3975C53.93 22.3975 53.333 21.5618 53.333 20.5309C53.333 19.4999 53.93 18.6642 54.6663 18.6642C55.4027 18.6642 55.9997 19.4999 55.9997 20.5309ZM49.3333 22.3975C50.0697 22.3975 50.6667 21.5618 50.6667 20.5309C50.6667 19.4999 50.0697 18.6642 49.3333 18.6642C48.597 18.6642 48 19.4999 48 20.5309C48 21.5618 48.597 22.3975 49.3333 22.3975ZM45.3332 20.5309C45.3332 21.5618 44.7362 22.3975 43.9998 22.3975C43.2635 22.3975 42.6665 21.5618 42.6665 20.5309C42.6665 19.4999 43.2635 18.6642 43.9998 18.6642C44.7362 18.6642 45.3332 19.4999 45.3332 20.5309Z" fill="url(#paint0_linear_941_13355)"/>
</g>
</g>
</g>
<g clip-path="url(#clip1_941_13355)">
<rect x="80" y="0.000244141" width="56.0014" height="56" rx="9.69792" fill="white"/>
<mask id="mask2_941_13355" style="mask-type:luminance" maskUnits="userSpaceOnUse" x="80" y="0" width="57" height="57">
<rect x="80" y="0.000244141" width="56.0014" height="56" rx="9.69792" fill="white"/>
</mask>
<g mask="url(#mask2_941_13355)">
<g filter="url(#filter1_d_941_13355)">
<path fill-rule="evenodd" clip-rule="evenodd" d="M80 41.0661H136.001V26.1328H80V41.0661Z" fill="#0748AE"/>
</g>
<g filter="url(#filter2_d_941_13355)">
<path fill-rule="evenodd" clip-rule="evenodd" d="M80 55.9997H136.001V41.0664H80V55.9997Z" fill="#DE2035"/>
</g>
<path fill-rule="evenodd" clip-rule="evenodd" d="M80 26.1336H136.001V0.000244141H80V26.1336Z" fill="#FFD935"/>
</g>
</g>
<defs>
<filter id="filter0_d_941_13355" x="42.6665" y="3.73242" width="18.6669" height="20.4152" filterUnits="userSpaceOnUse" color-interpolation-filters="sRGB">
<feFlood flood-opacity="0" result="BackgroundImageFix"/>
<feColorMatrix in="SourceAlpha" type="matrix" values="0 0 0 0 0 0 0 0 0 0 0 0 0 0 0 0 0 0 127 0" result="hardAlpha"/>
<feOffset dy="1.75"/>
<feColorMatrix type="matrix" values="0 0 0 0 0 0 0 0 0 0 0 0 0 0 0 0 0 0 0.06 0"/>
<feBlend mode="normal" in2="BackgroundImageFix" result="effect1_dropShadow_941_13355"/>
<feBlend mode="normal" in="SourceGraphic" in2="effect1_dropShadow_941_13355" result="shape"/>
</filter>
<filter id="filter1_d_941_13355" x="80" y="26.1328" width="56.0015" height="14.9333" filterUnits="userSpaceOnUse" color-interpolation-filters="sRGB">
<feFlood flood-opacity="0" result="BackgroundImageFix"/>
<feColorMatrix in="SourceAlpha" type="matrix" values="0 0 0 0 0 0 0 0 0 0 0 0 0 0 0 0 0 0 127 0" result="hardAlpha"/>
<feOffset/>
<feColorMatrix type="matrix" values="0 0 0 0 0 0 0 0 0 0 0 0 0 0 0 0 0 0 0.06 0"/>
<feBlend mode="normal" in2="BackgroundImageFix" result="effect1_dropShadow_941_13355"/>
<feBlend mode="normal" in="SourceGraphic" in2="effect1_dropShadow_941_13355" result="shape"/>
</filter>
<filter id="filter2_d_941_13355" x="80" y="41.0664" width="56.0015" height="14.9333" filterUnits="userSpaceOnUse" color-interpolation-filters="sRGB">
<feFlood flood-opacity="0" result="BackgroundImageFix"/>
<feColorMatrix in="SourceAlpha" type="matrix" values="0 0 0 0 0 0 0 0 0 0 0 0 0 0 0 0 0 0 127 0" result="hardAlpha"/>
<feOffset/>
<feColorMatrix type="matrix" values="0 0 0 0 0 0 0 0 0 0 0 0 0 0 0 0 0 0 0.06 0"/>
<feBlend mode="normal" in2="BackgroundImageFix" result="effect1_dropShadow_941_13355"/>
<feBlend mode="normal" in="SourceGraphic" in2="effect1_dropShadow_941_13355" result="shape"/>
</filter>
<linearGradient id="paint0_linear_941_13355" x1="42.6665" y1="3.73242" x2="42.6665" y2="22.3975" gradientUnits="userSpaceOnUse">
<stop stop-color="white"/>
<stop offset="1" stop-color="#F0F0F0"/>
</linearGradient>
<clipPath id="clip0_941_13355">
<rect x="40" width="56" height="56" rx="28" fill="white"/>
</clipPath>
<clipPath id="clip1_941_13355">
<rect x="80" width="56.0014" height="56" rx="28" fill="white"/>
</clipPath>
</defs>
</svg>
