<svg width="56" height="56" viewBox="0 0 56 56" fill="none" xmlns="http://www.w3.org/2000/svg">
<g clip-path="url(#clip0_785_9553)">
<rect width="56" height="56" rx="3.5" fill="white"/>
<mask id="mask0_785_9553" style="mask-type:luminance" maskUnits="userSpaceOnUse" x="0" y="0" width="56" height="56">
<rect width="56" height="56" rx="3.5" fill="white"/>
</mask>
<g mask="url(#mask0_785_9553)">
<path fill-rule="evenodd" clip-rule="evenodd" d="M56 0H0V3.73333H56V0ZM56 7.46689H0V11.2002H56V7.46689ZM0.000177002 14.9336H56.0002V18.6669H0.000177002V14.9336ZM56.0002 22.4004H0.000177002V26.1337H56.0002V22.4004ZM0.000177002 29.8672H56.0002V33.6005H0.000177002V29.8672ZM56.0002 37.334H0.000177002V41.0673H56.0002V37.334ZM0.000177002 44.8008H56.0002V48.5341H0.000177002V44.8008ZM56.0002 52.2656H0.000177002V55.999H56.0002V52.2656Z" fill="#D02F44"/>
<rect width="24" height="26.1333" fill="#46467F"/>
<g filter="url(#filter0_d_785_9553)">
<path fill-rule="evenodd" clip-rule="evenodd" d="M10.6661 5.59909C10.6661 6.63002 10.0691 7.46576 9.33277 7.46576C8.59639 7.46576 7.99943 6.63002 7.99943 5.59909C7.99943 4.56816 8.59639 3.73242 9.33277 3.73242C10.0691 3.73242 10.6661 4.56816 10.6661 5.59909ZM5.33268 5.59924C5.33268 6.63017 4.73573 7.4659 3.99935 7.4659C3.26297 7.4659 2.66602 6.63017 2.66602 5.59924C2.66602 4.5683 3.26297 3.73257 3.99935 3.73257C4.73573 3.73257 5.33268 4.5683 5.33268 5.59924ZM14.6658 7.46576C15.4022 7.46576 15.9992 6.63002 15.9992 5.59909C15.9992 4.56816 15.4022 3.73242 14.6658 3.73242C13.9294 3.73242 13.3325 4.56816 13.3325 5.59909C13.3325 6.63002 13.9294 7.46576 14.6658 7.46576ZM21.3329 5.59909C21.3329 6.63002 20.7359 7.46576 19.9996 7.46576C19.2632 7.46576 18.6662 6.63002 18.6662 5.59909C18.6662 4.56816 19.2632 3.73242 19.9996 3.73242C20.7359 3.73242 21.3329 4.56816 21.3329 5.59909ZM6.66585 11.1983C7.40223 11.1983 7.99919 10.3626 7.99919 9.33166C7.99919 8.30073 7.40223 7.46499 6.66585 7.46499C5.92947 7.46499 5.33252 8.30073 5.33252 9.33166C5.33252 10.3626 5.92947 11.1983 6.66585 11.1983ZM13.3327 9.33166C13.3327 10.3626 12.7357 11.1983 11.9993 11.1983C11.263 11.1983 10.666 10.3626 10.666 9.33166C10.666 8.30073 11.263 7.46499 11.9993 7.46499C12.7357 7.46499 13.3327 8.30073 13.3327 9.33166ZM17.3324 11.1983C18.0687 11.1983 18.6657 10.3626 18.6657 9.33166C18.6657 8.30073 18.0687 7.46499 17.3324 7.46499C16.596 7.46499 15.999 8.30073 15.999 9.33166C15.999 10.3626 16.596 11.1983 17.3324 11.1983ZM21.3329 13.066C21.3329 14.0969 20.7359 14.9327 19.9996 14.9327C19.2632 14.9327 18.6662 14.0969 18.6662 13.066C18.6662 12.0351 19.2632 11.1993 19.9996 11.1993C20.7359 11.1993 21.3329 12.0351 21.3329 13.066ZM14.6658 14.9327C15.4022 14.9327 15.9992 14.0969 15.9992 13.066C15.9992 12.0351 15.4022 11.1993 14.6658 11.1993C13.9294 11.1993 13.3325 12.0351 13.3325 13.066C13.3325 14.0969 13.9294 14.9327 14.6658 14.9327ZM10.6661 13.066C10.6661 14.0969 10.0691 14.9327 9.33277 14.9327C8.59639 14.9327 7.99943 14.0969 7.99943 13.066C7.99943 12.0351 8.59639 11.1993 9.33277 11.1993C10.0691 11.1993 10.6661 12.0351 10.6661 13.066ZM3.99937 14.9327C4.73575 14.9327 5.3327 14.0969 5.3327 13.066C5.3327 12.0351 4.73575 11.1993 3.99937 11.1993C3.26299 11.1993 2.66603 12.0351 2.66603 13.066C2.66603 14.0969 3.26299 14.9327 3.99937 14.9327ZM7.99919 16.8004C7.99919 17.8313 7.40223 18.6671 6.66585 18.6671C5.92947 18.6671 5.33252 17.8313 5.33252 16.8004C5.33252 15.7695 5.92947 14.9337 6.66585 14.9337C7.40223 14.9337 7.99919 15.7695 7.99919 16.8004ZM11.9993 18.6671C12.7357 18.6671 13.3327 17.8313 13.3327 16.8004C13.3327 15.7695 12.7357 14.9337 11.9993 14.9337C11.263 14.9337 10.666 15.7695 10.666 16.8004C10.666 17.8313 11.263 18.6671 11.9993 18.6671ZM18.6657 16.8004C18.6657 17.8313 18.0687 18.6671 17.3324 18.6671C16.596 18.6671 15.999 17.8313 15.999 16.8004C15.999 15.7695 16.596 14.9337 17.3324 14.9337C18.0687 14.9337 18.6657 15.7695 18.6657 16.8004ZM19.9993 22.3975C20.7357 22.3975 21.3327 21.5618 21.3327 20.5309C21.3327 19.4999 20.7357 18.6642 19.9993 18.6642C19.263 18.6642 18.666 19.4999 18.666 20.5309C18.666 21.5618 19.263 22.3975 19.9993 22.3975ZM15.9992 20.5309C15.9992 21.5618 15.4022 22.3975 14.6659 22.3975C13.9295 22.3975 13.3325 21.5618 13.3325 20.5309C13.3325 19.4999 13.9295 18.6642 14.6659 18.6642C15.4022 18.6642 15.9992 19.4999 15.9992 20.5309ZM9.33284 22.3975C10.0692 22.3975 10.6662 21.5618 10.6662 20.5309C10.6662 19.4999 10.0692 18.6642 9.33284 18.6642C8.59647 18.6642 7.99951 19.4999 7.99951 20.5309C7.99951 21.5618 8.59647 22.3975 9.33284 22.3975ZM5.33268 20.5309C5.33268 21.5618 4.73573 22.3975 3.99935 22.3975C3.26297 22.3975 2.66602 21.5618 2.66602 20.5309C2.66602 19.4999 3.26297 18.6642 3.99935 18.6642C4.73573 18.6642 5.33268 19.4999 5.33268 20.5309Z" fill="url(#paint0_linear_785_9553)"/>
</g>
</g>
</g>
<defs>
<filter id="filter0_d_785_9553" x="2.66602" y="3.73242" width="18.667" height="20.4152" filterUnits="userSpaceOnUse" color-interpolation-filters="sRGB">
<feFlood flood-opacity="0" result="BackgroundImageFix"/>
<feColorMatrix in="SourceAlpha" type="matrix" values="0 0 0 0 0 0 0 0 0 0 0 0 0 0 0 0 0 0 127 0" result="hardAlpha"/>
<feOffset dy="1.75"/>
<feColorMatrix type="matrix" values="0 0 0 0 0 0 0 0 0 0 0 0 0 0 0 0 0 0 0.06 0"/>
<feBlend mode="normal" in2="BackgroundImageFix" result="effect1_dropShadow_785_9553"/>
<feBlend mode="normal" in="SourceGraphic" in2="effect1_dropShadow_785_9553" result="shape"/>
</filter>
<linearGradient id="paint0_linear_785_9553" x1="2.66602" y1="3.73242" x2="2.66602" y2="22.3975" gradientUnits="userSpaceOnUse">
<stop stop-color="white"/>
<stop offset="1" stop-color="#F0F0F0"/>
</linearGradient>
<clipPath id="clip0_785_9553">
<rect width="56" height="56" rx="28" fill="white"/>
</clipPath>
</defs>
</svg>
