<svg width="42" height="40" viewBox="0 0 42 40" fill="none" xmlns="http://www.w3.org/2000/svg">
<path d="M20.2459 9.99181C20.6889 9.14646 21.6791 8.73458 22.5967 9.02749C25.0189 9.80071 27.3374 10.8802 29.4883 12.2408L29.5659 12.2921C30.3476 12.8389 30.6297 13.8732 30.2228 14.7458L21.1569 34.1869C21.0212 34.4779 20.8169 34.7315 20.5613 34.9256L14.4976 39.5286C13.6285 40.1884 12.3892 40.019 11.7293 39.1499C11.0695 38.2808 11.2393 37.0411 12.1085 36.3813L17.7822 32.0735L25.8817 14.7045C24.9581 14.2037 24.0045 13.7595 23.0267 13.374L21.9448 15.6955L21.8993 15.7865C21.4103 16.7104 20.2769 17.0982 19.3187 16.6515C18.3298 16.1904 17.9021 15.0149 18.3632 14.0259L20.2051 10.0748L20.2459 9.99181Z" fill="#3E4784"/>
<path d="M13.9003 23.5979C14.3617 22.6091 15.5375 22.1815 16.5263 22.6427C17.5152 23.1041 17.9427 24.2799 17.4815 25.2688L14.9268 30.7448L15.2763 37.8599L15.2788 37.9617C15.2771 39.007 14.4556 39.8786 13.3998 39.9304C12.344 39.9822 11.441 39.1953 11.3369 38.1552L11.3294 38.0535L10.9565 30.4499C10.9407 30.129 11.0033 29.8089 11.1392 29.5177L13.9003 23.5979Z" fill="#3E4784"/>
<path d="M37.5851 20.7683C37.5851 11.4807 30.0559 3.95154 20.7683 3.95154C11.4807 3.95154 3.95154 11.4807 3.95154 20.7683C3.95154 27.563 7.97967 33.4187 13.7862 36.0727L14.0639 36.1966L14.1565 36.2395C15.0925 36.7047 15.5089 37.8275 15.0871 38.7967C14.6652 39.766 13.5595 40.2264 12.5812 39.8582L12.4869 39.8198L12.1445 39.6668C4.98227 36.3933 0 29.1663 0 20.7683C5.36387e-07 9.29821 9.29821 0 20.7683 0C32.2384 2.189e-07 41.5366 9.29822 41.5366 20.7683C41.5366 29.3129 36.3764 36.649 29.0117 39.8369C28.0103 40.2704 26.8471 39.8098 26.4136 38.8084C25.9802 37.807 26.4404 36.6438 27.4418 36.2103C33.4123 33.6259 37.5851 27.6816 37.5851 20.7683Z" fill="#3E4784"/>
</svg>
