<svg width="41" height="40" viewBox="0 0 41 40" fill="none" xmlns="http://www.w3.org/2000/svg">
<g clip-path="url(#clip0_2278_5610)">
<path d="M18.5471 18.259V5.47712C18.5471 1.96096 21.8572 -0.727436 25.3303 0.173574L25.3304 0.173485C34.2629 2.49 40.801 10.7534 40.4612 20.4866L40.4519 20.7168C39.9768 31.0501 31.63 39.4353 21.3121 39.9721L21.1907 39.978C9.58174 40.5119 0.000488281 31.2559 0.000488281 19.7627C0.000494465 11.3579 5.12408 4.15337 12.4113 1.09493L12.4518 1.07855C13.3025 0.74657 14.2676 1.15198 14.6231 1.99893C14.9785 2.84586 14.5919 3.81857 13.7591 4.19321L13.7191 4.21065C7.64249 6.76096 3.37946 12.7661 3.37946 19.7627C3.37946 29.3377 11.3605 37.0476 21.0354 36.6026L21.2374 36.592C29.7743 36.0961 36.6827 29.1238 37.0764 20.5616L37.0841 20.3698C37.3673 12.2612 31.9244 5.37432 24.4822 3.44429H24.4819C23.2184 3.11646 21.9261 4.09887 21.9261 5.47712V18.259C21.9261 19.1921 21.1697 19.9485 20.2366 19.9485C19.3035 19.9485 18.5471 19.1921 18.5471 18.259Z" fill="#7839EE"/>
<path d="M20.2368 29.6762C22.0484 29.6762 23.517 28.2076 23.517 26.396C23.517 24.5843 22.0484 23.1157 20.2368 23.1157C18.4252 23.1157 16.9565 24.5843 16.9565 26.396C16.9565 28.2076 18.4252 29.6762 20.2368 29.6762Z" fill="#7839EE"/>
</g>
<defs>
<clipPath id="clip0_2278_5610">
<rect width="40.474" height="40" fill="white"/>
</clipPath>
</defs>
</svg>
