<svg width="41" height="40" viewBox="0 0 41 40" fill="none" xmlns="http://www.w3.org/2000/svg">
<path d="M18.2573 18.2876V5.70567C18.2574 2.04827 21.7017 -0.757511 25.3258 0.183421L25.3249 0.184301C34.1838 2.48249 40.6893 10.6312 40.4581 20.2615L40.4423 20.7209C39.9721 30.9307 31.8179 39.2369 21.6701 39.9498L21.1852 39.978C9.57966 40.5123 0 31.2585 0 19.767C0.000130904 11.364 5.12321 4.16228 12.4077 1.10482L12.5978 1.03618C13.5555 0.744038 14.5982 1.21944 14.9941 2.16263C15.4162 3.16871 14.9424 4.32681 13.9363 4.74907L13.3916 4.98932C7.81443 7.57538 3.95151 13.2222 3.95138 19.767C3.95138 29.0152 11.6594 36.461 21.003 36.031L21.3929 36.0081C29.5459 35.4348 36.1166 28.7417 36.4944 20.5396L36.5076 20.1691C36.6908 12.5427 31.6281 6.06637 24.6711 4.0996L24.3331 4.00808H24.3322C23.2937 3.7386 22.2087 4.54745 22.2087 5.70567V18.2876C22.2085 19.3786 21.324 20.2632 20.233 20.2633C19.1419 20.2633 18.2575 19.3787 18.2573 18.2876Z" fill="#D2D6DB"/>
<path d="M20.2321 29.5251C22.0156 29.5251 23.4614 28.0793 23.4614 26.2958C23.4614 24.5122 22.0156 23.0664 20.2321 23.0664C18.4485 23.0664 17.0027 24.5122 17.0027 26.2958C17.0027 28.0793 18.4485 29.5251 20.2321 29.5251Z" fill="#D2D6DB"/>
</svg>
